# xmcd
#
# Track frame offsets: 
#        150
#        11839
#        24777
#        35405
#        47239
#        60826
#        81441
#        103502
#        113289
#        126498
#        141836
#        153854
#        167056
#        178080
#        191503
#        210485
#        221983
#        234873
#        250383
#        264551
#        277713
#        310371
#        323048
#
# Disc length: 4590 seconds
#
# Revision: 0
# Processed by: cddbd v1.5.2PL0 Copyright (c) Steve Scherf et al.
# Submitted via: ExactAudioCopy v1.0b3
#
DISCID=3811ec17
DTITLE=Rockagilly's - trotzdem live
DYEAR=2014
DGENRE=Rockabilly
TTITLE0=Rock Therapy
TTITLE1=Twenty Flight Rock
TTITLE2=She's the Most
TTITLE3=Jeanie, Jeanie, Jeanie
TTITLE4=Whole Lotta Shakin'
TTITLE5=Sh Boom
TTITLE6=Just a Gigolo
TTITLE7=Oh Boy
TTITLE8=Farmer John
TTITLE9=Just the Way you are
TTITLE10=Mean Woman Blues
TTITLE11=Rockabilly Rebel
TTITLE12=Rip It Up
TTITLE13=Scandalous
TTITLE14=Lollipop
TTITLE15=Backbeat Boogie
TTITLE16=Black or White
TTITLE17=North Side Gal
TTITLE18=Great Balls of Fire
TTITLE19=C'mon Everybody
TTITLE20=Runaround Sue
TTITLE21=Good Golly Miss Molly
TTITLE22=Always Look on the Bright Side of Life
EXTD=
EXTT0=
EXTT1=
EXTT2=
EXTT3=
EXTT4=
EXTT5=
EXTT6=
EXTT7=
EXTT8=
EXTT9=
EXTT10=
EXTT11=
EXTT12=
EXTT13=
EXTT14=
EXTT15=
EXTT16=
EXTT17=
EXTT18=
EXTT19=
EXTT20=
EXTT21=
EXTT22=
PLAYORDER=
